<svg xmlns="http://www.w3.org/2000/svg" width="256" height="256"><path fill="#1976D2" fill-opacity=".016" fill-rule="evenodd" d="M0 128.004v128.004l128.25-.254 128.25-.254.254-127.75L257.008 0H0zm.485.496c0 70.4.119 99.053.265 63.672s.146-92.98 0-128S.485 58.1.485 128.5"/><path fill="#1976D2" fill-opacity=".103" fill-rule="evenodd" d="M121.63 5.949c-6.126 6.422-10.198 13.986-11.228 20.854-.517 3.449-.974 4.19-2.275 3.686-4.747-1.842-12.635-3.381-13.402-2.614-1.1 1.1-1.278 12.52-.266 17.022l.765 3.398-3.362-.681c-7.68-1.555-14.705-1.679-20.862-.368l-6.5 1.384.305 7.435c.315 7.677 2.926 19.654 5.768 26.457 1.494 3.573 1.494 3.779.007 2.544-1.37-1.136-1.911-1.076-3.534.392-1.581 1.431-1.724 2.154-.82 4.138 1.368 3.003 2.886 3.056 4.691.165 1.339-2.143 1.601-1.817 6.132 7.635l4.733 9.873-1.807 6.319c-1.33 4.652-1.762 9.297-1.635 17.615.154 10.137.457 11.88 2.956 16.979 4.384 8.945 12.272 16.12 21.73 19.768 7.925 3.056 13.974 3.937 13.974 2.035 0-.558-1.309-3.371-2.909-6.25s-5.483-11.31-8.631-18.735c-3.147-7.425-8.363-18.028-11.591-23.563S88 110.727 88 109.936s2.462-6.789 5.472-13.329c3.009-6.539 5.189-12.346 4.845-12.903s-.142-.714.449-.348c.623.384 2.403-1.655 4.229-4.847l3.154-5.512 3.923 5.221c2.662 3.543 3.729 5.835 3.318 7.127-.392 1.236-.221 1.668.488 1.231.6-.371-.463 2.385-2.363 6.124-4.106 8.084-7.41 20.479-7.676 28.8l-.192 6-.694-6.5c-.611-5.721-.657-5.421-.386 2.5.369 10.803 2.564 17.312 11.82 35.045C121.985 173.102 127.018 181 128.696 181c1.052 0 6.458-8.639 17.577-28.09 6.909-12.086 10.784-28.926 9.017-39.184-.542-3.149-.605-5.726-.138-5.726 1.427 0 .941-2.75-.59-3.338-.79-.303-1.867-2.039-2.391-3.857-.525-1.818-1.27-4.205-1.657-5.305-.558-1.588-.485-1.692.352-.505.913 1.293 1.259 1.226 2.563-.5.829-1.097 1.522-2.284 1.539-2.638.062-1.243-3.235-1.88-4.462-.862-1.414 1.174-2.413.224-4.727-4.495-1.416-2.887-1.332-3.196 2.216-8.193l3.687-5.194 5.556 9.694c8.181 14.272 13.015 25.852 11.766 28.185-1.321 2.469-1.27 3.29.151 2.413.721-.446.882-.274.43.457-.398.644-1.101.937-1.562.652s-2.681 2.836-4.931 6.937c-4.403 8.022-4.774 9.06-2.842 7.948.726-.418.901-.338.417.191-.459.5-1.359.918-2 .927-.642.009-1.134 1-1.093 2.2s-.247 1.985-.64 1.742c-.783-.484-1.817 1.593-7.487 15.041-2.087 4.95-5.302 11.813-7.144 15.25l-3.349 6.25h3.477c4.751 0 15.729-4.12 20.305-7.621 3.39-2.593 8.859-4.15 7.638-2.175s.943 2.788 2.293.861c1.278-1.825 1.278-2.263-.005-3.546-1.285-1.284-1.615-1.28-2.705.033-.683.823-1.442 1.297-1.686 1.052s1.356-2.721 3.555-5.503c5.826-7.371 7.703-13.626 7.533-25.101-.083-5.655-.893-12.322-2-16.471l-1.859-6.971 5.28-10.912c4.874-10.074 8.493-19.586 9.766-25.671 2.018-9.643 2.291-12.321 1.641-16.128-.707-4.141-.9-4.331-5.211-5.138-2.462-.461-9.111-.608-14.777-.327-9.351.465-10.255.355-9.806-1.185 1.19-4.092 1.779-11.465 1.174-14.69-.602-3.213-.95-3.507-4.144-3.507-1.918 0-5.103.675-7.077 1.5-4.921 2.056-5.013 2.016-5.61-2.432-.874-6.512-5.32-14.781-11.347-21.099C132.258 2.686 129.158 0 128.5 0s-3.749 2.677-6.87 5.949m2.804 4.301c-5.052 5.986-8.44 14.594-8.363 21.25.118 10.205.953 10.549 5.568 2.296 2.245-4.013 4.557-7.296 5.138-7.296s1.431-.41 1.89-.91c.492-.538.268-.583-.547-.111-.894.518-1.237.372-.975-.415.884-2.65 2.583-1.061 7.832 7.324 5.319 8.499 5.499 8.669 6.283 5.931 1.233-4.305-.169-13.232-2.983-18.993C135.27 13.169 130.385 7 128.516 7c-.736 0-2.573 1.462-4.082 3.25m.669 27.83c-4.857 8.406-4.859 9.049-.04 17.024l4.283 7.089 1.772-2.347c.974-1.29 2.742-4.418 3.929-6.95l2.158-4.603-2.65-5.397c-1.457-2.968-3.476-6.485-4.485-7.816l-1.835-2.42zM99 37.106c0 4.551 2.8 14.593 5.529 19.831 1.308 2.51 2.399 4.021 2.424 3.358.026-.663 1.549-3.757 3.386-6.876l3.338-5.67-1.957-5.313c-1.67-4.533-2.531-5.543-5.859-6.875C100.108 33.259 99 33.509 99 37.106m51.93-1.442c-3.156 1.3-3.743 2.13-5.054 7.153l-1.484 5.683 3.421 5.75c1.881 3.163 3.545 5.75 3.698 5.75 1.052 0 5.745-14.483 6.367-19.653.725-6.016.657-6.342-1.307-6.25-1.139.054-3.678.759-5.641 1.567m31.883 15.019c.721.289 1.584.253 1.916-.079s-.258-.568-1.312-.525c-1.165.048-1.402.285-.604.604m-71.772 3.972c-1.697 2.876-1.879 3.827-.857 4.459 1.869 1.155 2.992-.398 3.269-4.52.132-1.977.129-3.594-.007-3.594-.137 0-1.219 1.645-2.405 3.655m59.349-2.468c-8.57 1.268-10.146 2.27-13.128 8.351l-2.741 5.589 2.361 4.186c1.298 2.303 5.301 9.765 8.896 16.583 7.464 14.157 6.954 14.102 12.276 1.319 2.314-5.558 2.805-7.684 1.904-8.241-.668-.413-.898-1.262-.512-1.887.405-.655.151-1.02-.598-.862-2.173.459-2.076-3.708.132-5.707 1.585-1.434 2.342-1.596 3.244-.694 2.014 2.014 2.416 1.384 3.803-5.966.957-5.072 1.563-6.593 2.09-5.25.629 1.602.753 1.633.813.201.038-.93-.38-1.969-.93-2.309s-1-1.506-1-2.59c0-1.085-.602-2.204-1.337-2.486-2.343-.899-9.994-1.018-15.273-.237m-99.14.411c-1.672.761-1.575 3.866.403 12.869 1.339 6.094 1.909 7.311 3 6.406 1-.83 1.734-.797 2.847.127 1.952 1.62 1.904 3.897-.132 6.145-1.514 1.674-1.463 2.254.709 8.079 1.287 3.452 3.316 8.002 4.509 10.111l2.17 3.834 3.201-5.594c1.761-3.078 3.611-5.342 4.111-5.033s.641-.136.314-.989c-.347-.904 1.791-5.727 5.126-11.567l5.721-10.017-2.864-5.563c-3.784-7.348-6.41-8.642-18.365-9.051-5.225-.179-10.062-.069-10.75.243m45.122 2.531c-.591.754-2.33 3.72-3.865 6.591l-2.792 5.22 3.809 5.53c2.094 3.041 4.12 5.53 4.501 5.53.38 0 2.318-2.449 4.305-5.442l3.613-5.442-3.221-4.912c-1.772-2.702-3.684-5.708-4.249-6.679-.853-1.465-1.211-1.533-2.101-.396m20.207 6.007c-2.01 3.374-3.525 6.412-3.366 6.75s1.794 2.983 3.633 5.878l3.343 5.265 1.721-2.265c.947-1.245 2.731-3.935 3.965-5.978l2.243-3.714-3.309-6.024c-1.82-3.313-3.594-6.03-3.942-6.036-.348-.007-2.278 2.749-4.288 6.124M177 58.5c0 .825.45 1.5 1 1.5s1-.675 1-1.5-.45-1.5-1-1.5-1 .675-1 1.5m13.195 1c.02 1.65.244 2.204.498 1.231s.237-2.323-.037-3-.481.119-.461 1.769m-22.022.159c.195 1.013 1.023 1.841 1.841 1.841 2.143 0 1.834-2.906-.355-3.327-1.336-.257-1.743.15-1.486 1.486m-88.944.529c.618 1.854 2.771 2.161 2.771.395 0-.871-.713-1.583-1.583-1.583-.871 0-1.406.534-1.188 1.188m10.386 4.277c-2.043 3.118-2.006 4.469.198 7.334 2.096 2.724 4.417 2.187 6.052-1.401 1.543-3.389 1.45-4.083-.865-6.398-2.594-2.594-3.428-2.522-5.385.465m15.261 1.785c-1.191 2.338-2.828 5.375-3.639 6.75l-1.474 2.5 2.096-2.5c1.153-1.375 2.107-2.823 2.119-3.219s.697-.459 1.522-.143 1.56.19 1.633-.281c.324-2.078.468-7.357.201-7.357-.161 0-1.268 1.913-2.458 4.25m.688 1.457c-.542 1.425-.428 1.54.56.56.684-.679.991-1.486.683-1.793-.308-.308-.867.247-1.243 1.233m80.515 2.876c.048 1.165.285 1.402.604.605.289-.722.253-1.585-.079-1.917s-.568.258-.525 1.312m-7.62 3.484c-.363.586-.445 1.281-.183 1.543s.743-.218 1.069-1.067c.676-1.762.1-2.072-.886-.476m8.165.472c-.343.893-.595 2.15-.561 2.793.035.642.495.09 1.022-1.227s.779-2.574.56-2.793-.679.333-1.021 1.227m-59.348 4.711c-4.046 4.392-11.52 18.374-14.377 26.898-3.979 11.868-4.034 22.542-.177 33.969 3.038 9.001 14.383 31.424 15.84 31.309 1.488-.118 13.783-25.173 16.334-33.286 4.539-14.439 3.835-25.313-2.534-39.128C139.402 92.59 130.365 77 129.603 77c-.14 0-1.187 1.013-2.327 2.25m-15.859 9.107c-.347.904-1.722 1.643-3.055 1.643-2.913 0-3.926 2.078-2.401 4.927.855 1.597.748 3.163-.456 6.711-.865 2.546-1.378 4.823-1.14 5.06.237.237 1.203-1.96 2.146-4.883s2.828-7.263 4.19-9.644c1.361-2.38 2.221-4.582 1.911-4.893s-.849.175-1.195 1.079m16.708 1.565c-1.164.72-.554 4.078.741 4.078.359 0 1.19-.86 1.846-1.911.941-1.506.919-2.016-.1-2.408-.711-.273-1.83-.164-2.487.241m-42.122 11.071c-2.889 5.725-6.032 15.696-5.977 18.967.014.847 1.072-1.385 2.351-4.96a919 919 0 0 1 4.885-13.25C88.67 98.037 89.643 95 89.425 95s-1.758 2.697-3.422 5.993M119 98.5c-.94 1.132-.901 1.742.179 2.822 1.165 1.165 1.575 1.166 2.654.011 1.038-1.111 1.005-1.638-.179-2.822-1.268-1.268-1.61-1.27-2.654-.011m6.5 6.215c-1.65 2.591-3.485 5.852-4.077 7.248-1.862 4.385-3.692 14.791-2.848 16.194.661 1.097.524 1.112-.75.081-1.269-1.027-1.787-.989-2.778.206-1.59 1.916-.386 3.798 1.954 3.056 1.519-.482 2.11.37 3.447 4.97 1.774 6.102 6.45 14.53 8.061 14.53 1.016 0 6.556-8.74 7.871-12.417.506-1.416.979-1.624 1.806-.797.788.788 1.693.814 3.05.088 1.862-.997 1.865-1.08.099-2.371-1.246-.911-2.214-1.018-3.037-.336-.931.774-.989.243-.252-2.326 1.243-4.335 1.211-10.545-.086-16.592-1.037-4.837-6.608-15.3-8.475-15.919-.542-.179-2.335 1.794-3.985 4.385m-60.295-1.462c-.731.881-.643 1.795.298 3.082 1.297 1.773 1.368 1.773 2.282-.002 1.693-3.286-.368-5.746-2.58-3.08M185 107c0 .55.702 1 1.559 1s1.281-.45.941-1-1.041-1-1.559-1-.941.45-.941 1m-46.88 1.355c-.871 1.05-.815 1.653.235 2.525s1.653.815 2.525-.235.815-1.653-.235-2.525-1.653-.815-2.525.235m-35.409 1.644c-.288 1.099-.115 2.251.383 2.559s.906-.592.906-1.999c0-3.064-.57-3.312-1.289-.56m19.368 3.584c.048 1.165.285 1.402.604.605.289-.722.253-1.585-.079-1.917s-.568.258-.525 1.312m47.299 3.615c-.441.713-.227.827.597.317 1.572-.971 2.177-2.354-7.648 17.485-9.509 19.202-14.425 30-13.66 30 .299 0 2.858-1.131 5.688-2.513 6.701-3.274 15.077-12.417 17.656-19.275 2.01-5.342 2.678-16.518 1.377-23.023-.645-3.225-2.85-4.869-4.01-2.991m-85.031 4.456c-3.401 16.779 3.736 33.326 17.222 39.923 3.023 1.48 5.688 2.5 5.921 2.267s-2.654-7.156-6.415-15.384c-7.894-17.272-9.446-20.364-13.201-26.306l-2.747-4.346zM120.272 123c0 2.475.195 3.487.434 2.25.238-1.237.238-3.263 0-4.5-.239-1.237-.434-.225-.434 2.25m43.395.213c-1.354 2.46-1.403 2.784-.195 1.287.888-1.1 2.007-2 2.488-2s1.248-.41 1.707-.91c.478-.523.337-.627-.332-.244-.64.367-1.321.197-1.512-.377s-1.162.436-2.156 2.244M104.158 130c0 1.375.227 1.938.504 1.25.278-.687.278-1.812 0-2.5-.277-.687-.504-.125-.504 1.25m16.037.5c.02 1.65.244 2.204.498 1.231s.237-2.323-.037-3-.481.119-.461 1.769m69.009 1.545c-1.086 1.739-.981 2.423.702 4.562l1.979 2.516 1.52-2.94c1.394-2.695 1.372-3.075-.271-4.562-2.269-2.053-2.391-2.04-3.93.424M60 134c0 .55.45 1 1 1s1-.45 1-1-.45-1-1-1-1 .45-1 1m125.984 13.519c-1.032 1.243-.93 1.883.561 3.531 1.573 1.738 2.015 1.819 3.241.593 1.648-1.649.777-5.643-1.231-5.643-.721 0-1.877.683-2.571 1.519M67.1 148.814c-.814 1.521-.61 2.32.956 3.737 2.409 2.18 4.28.855 3.779-2.675-.422-2.965-3.364-3.625-4.735-1.062m119.443.117c-.317.512-.193 1.167.274 1.456s.85-.13.85-.931c0-1.686-.316-1.833-1.124-.525m-44.793 20.731c.688.278 1.813.278 2.5 0 .688-.277.125-.504-1.25-.504s-1.937.227-1.25.504M34.225 201.893c5.875 12.014 13.974 27.095 14.532 27.059.687-.044 13.587-25.865 13.453-26.927-.033-.261-.431-.584-.885-.716-.454-.133-3.07 4.526-5.814 10.354l-4.989 10.595-2.38-5.246c-1.488-3.279-2.658-4.795-3.122-4.045-.436.707-.775.035-.824-1.633-.045-1.559-.375-4.457-.732-6.441-.631-3.504-.776-3.607-5.092-3.607-2.444 0-4.31.273-4.147.607M67.5 202c-.34.55.031 1 .824 1 2.035 0 2.647 3.142 2.662 13.679.011 7.024-.355 9.547-1.557 10.75C68 228.857 68.366 229 73.452 229h5.594l-1.591-2.428c-1.252-1.911-1.517-4.519-1.244-12.25.191-5.402.72-10.609 1.175-11.572.731-1.545.236-1.75-4.22-1.75-2.776 0-5.326.45-5.666 1m17.5-.059c0 .518.45 1.219 1 1.559 1.476.912 1.296 22.804-.2 24.3-.933.933.827 1.2 7.923 1.2 8.383 0 9.376-.212 12.236-2.619 4.224-3.554 6.041-7.409 6.041-12.816 0-5.768-3.672-10.249-9.5-11.594-5.25-1.212-17.5-1.233-17.5-.03M128 203c-.658 1.229-2.117 2.012-3.785 2.032-5.621.066-8.151 5.171-4.54 9.161 1.551 1.715 1.555 2.088.053 5.079-.892 1.775-2.59 4.691-3.773 6.478-1.567 2.367-1.78 3.25-.784 3.25.752 0 2.866-2.726 4.698-6.058 3.154-5.738 3.487-6.023 6.309-5.403 1.638.36 4.083.776 5.433.924s2.587.442 2.748.653 1.315 2.082 2.564 4.158c2.533 4.211 7.006 7.017 9.764 6.125 8.384-2.712 9.968-4.725 2.963-3.765-4.002.549-4.521.356-6.492-2.411-1.178-1.655-3.389-5.644-4.913-8.866-3.58-7.568-7.174-13.357-8.291-13.357-.486 0-1.365.9-1.954 2m33.759-1.447c-.408.42-.183 1.436.5 2.259 1.736 2.092 1.729 22.359-.009 22.938-3.147 1.049-.716 2.247 4.5 2.218 4.996-.027 5.521-.206 4-1.36-1.224-.929-1.75-2.722-1.75-5.968 0-3.953.292-4.64 1.974-4.64 1.225 0 2.598 1.234 3.614 3.25 3.115 6.172 6.363 8.75 11.027 8.75h4.241l2.118-5.75c1.165-3.162 2.846-7.696 3.736-10.073l1.618-4.324 2.449 5.807c5.647 13.392 10.521 17.19 17.692 13.788 6.092-2.891 5.608-4.57-.579-2.008-2.802 1.16-7.198-3.806-11.575-13.076-2.301-4.875-4.424-9.651-4.718-10.614-1.005-3.292-2.104-1.742-6.027 8.5-5.9 15.4-6.249 15.992-8.677 14.693-2.285-1.223-8.156-9.128-8.495-11.437-.121-.824.17-1.739.647-2.034s.62-1.309.317-2.254c-.456-1.423-.373-1.466.486-.252.719 1.017.711 1.861-.028 2.75-1.347 1.623.368 1.696 1.98.084 1.886-1.886 1.411-5.443-1.117-8.383-2.038-2.368-3.217-2.75-9.75-3.16-4.088-.257-7.767-.123-8.174.296m-67.509 2.134c-.706.271-1.25 2.185-1.25 4.396S92.515 212 91.887 212c-.717 0-.894 1.16-.497 3.25.34 1.787.883 4.825 1.207 6.75.821 4.875 1.715 5.524 6.1 4.431 6.933-1.728 10.364-10.544 6.793-17.451-1.999-3.866-7.818-6.606-11.24-5.293m74.75 6.108c0 5.821.046 5.919 2.561 5.438 1.409-.269 3.245-1.533 4.08-2.808 2.135-3.258-.01-7.793-3.898-8.241-2.718-.314-2.743-.262-2.743 5.611m-48.363-1.519c-1.051.769-1.494 1.932-1.114 2.923 1.164 3.033 3.15 2.709 4.817-.786 1.536-3.22 1.526-3.413-.165-3.413-.986 0-2.578.574-3.538 1.276m5.509 2.963c-2.316 3.658-1.926 4.151 4.189 5.297l3.836.719-2.071-4.06c-2.797-5.482-3.563-5.733-5.954-1.956m27.838-1.72c-1.031 1.243-.934 1.878.533 3.5 1.787 1.975 1.799 1.975 3.225-.061 1.129-1.612 1.176-2.352.222-3.501-1.535-1.85-2.405-1.836-3.98.062m61.052-.062c-.956 1.151-.899 1.901.271 3.571l1.48 2.114 1.578-2.253c1.165-1.664 1.292-2.597.484-3.571-1.408-1.697-2.317-1.664-3.813.139M74.158 213c0 1.375.227 1.938.504 1.25.278-.687.278-1.812 0-2.5-.277-.687-.504-.125-.504 1.25m-2 1c0 1.375.227 1.938.504 1.25.278-.687.278-1.812 0-2.5-.277-.687-.504-.125-.504 1.25m38.037.5c.02 1.65.244 2.204.498 1.231s.237-2.323-.037-3-.481.119-.461 1.769m54.835.05c.027 2.586.163 2.722 1.104 1.104.769-1.324.761-2.159-.03-2.95-.805-.805-1.096-.305-1.074 1.846m-56.872.45c0 1.375.227 1.938.504 1.25.278-.687.278-1.812 0-2.5-.277-.687-.504-.125-.504 1.25m-65.594.293c.376.986.935 1.541 1.243 1.233s.001-1.114-.683-1.793c-.988-.98-1.102-.865-.56.56M56 237.152c0 .466.432.848.961.848s1.091 3.938 1.25 8.75l.289 8.75 4.687.302c3.974.256 4.866-.032 5.863-1.896 1.262-2.358 1.448-2.35-5.3-.224-1.578.497-1.75-.336-1.75-8.498v-9.05l-3 .085c-1.65.047-3 .467-3 .933m18.694 3.804c.766 8.656 1.347 10.734 3.571 12.773 2.807 2.572 7.557 2.194 9.985-.796 2.177-2.681 2.618-17.387.5-16.686-.817.27-1.351 3.037-1.54 7.994-.344 8.954-1.718 10.967-5.705 8.354-2.303-1.509-2.505-2.243-2.505-9.107 0-7.228-.075-7.459-2.354-7.271-2.164.179-2.321.561-1.952 4.739m22.292 2.794c-.007 4.262-.285 8.762-.616 10-.484 1.806-.192 2.25 1.48 2.25 1.881 0 2.049-.486 1.727-5-.197-2.75-.224-5-.062-5s1.482 2.025 2.932 4.5c1.451 2.475 2.993 4.5 3.427 4.5s2.01-2.137 3.501-4.75l2.712-4.75-.301 4.75c-.307 4.85-.37 4.772 3.862 4.746.925-.005.378-16.127-.606-17.886-.813-1.451-3.131 2.079-6.822 10.388l-1.332 2.999-4.021-7.249c-2.211-3.986-4.435-7.248-4.943-7.248s-.93 3.488-.938 7.75m25.98-6.291c.793.956 1.103 4.287.899 9.669-.296 7.816-.207 8.218 1.862 8.37 2.099.155 2.169-.169 2.072-9.669L127.7 236h-2.973c-2.491 0-2.776.236-1.761 1.459m12.534 7.969c0 10.535-.209 10.27 8.007 10.137 3.39-.055 4.043-.415 4.321-2.381.322-2.269.266-2.284-2.7-.75-4.69 2.425-5.978 2.051-5.791-1.684.143-2.858.483-3.229 2.816-3.075 1.949.129 2.801-.391 3.21-1.956.726-2.775.266-3.126-2.298-1.754-2.689 1.439-4.065.574-4.065-2.555 0-2.898 2.509-4.198 5.044-2.615 1.393.87 1.906.778 2.367-.424.324-.844.589-1.723.589-1.953s-2.588-.418-5.75-.419l-5.75-.001zM152 236.8c0 .44.484 1.284 1.075 1.875.738.738.796 3.475.184 8.727-1.008 8.664-.731 8.989 7.131 8.377 2.96-.231 4.088-.838 4.718-2.541.954-2.58.203-2.788-2.549-.706-3.522 2.663-5.559 1.889-5.559-2.111 0-3.457.103-3.557 3-2.921 2.728.599 3 .425 3-1.921 0-2.591-1.348-3.443-2.5-1.579-1.47 2.378-3.5.928-3.5-2.5 0-2.798.389-3.5 1.941-3.5 1.068 0 2.224.457 2.569 1.016.82 1.328 2.49.271 2.49-1.575 0-1.095-1.443-1.441-6-1.441-3.3 0-6 .36-6 .8m19.5.165c-1.65.439-2.404.852-1.677.917 1.013.09 1.248 2.114 1 8.62-.313 8.247-.255 8.503 1.927 8.5 1.926-.002 2.256-.543 2.291-3.752l.04-3.75 2.73 3.188c2.7 3.152 7.451 5.716 8.552 4.615.313-.312-.543-1.444-1.903-2.513q-5.847-4.6-3.04-7.702c1.934-2.137 2.046-5.456.235-6.96-1.887-1.566-6.609-2.107-10.155-1.163m19.353 7.134c.229 5.045-.061 8.446-.795 9.331-1.561 1.882-.521 2.259 5.942 2.157 4.959-.078 5.532-.315 5.828-2.403.322-2.269.266-2.284-2.7-.75-4.39 2.27-5.128 1.98-5.128-2.013 0-3.457.103-3.557 3-2.921 2.728.599 3 .425 3-1.921 0-2.762-.92-3.259-2.713-1.466-1.589 1.589-3.287.192-3.287-2.703 0-2.898 2.509-4.198 5.044-2.615 1.393.87 1.906.778 2.367-.424.324-.844.589-1.699.589-1.901s-2.589-.353-5.754-.338l-5.754.027zM125 238.059c0 .582.45.781 1 .441s1-.816 1-1.059-.45-.441-1-.441-1 .477-1 1.059m50 3.441c0 3.739 1.783 4.671 3.947 2.064.885-1.066.907-1.968.087-3.5-1.802-3.368-4.034-2.573-4.034 1.436"/><path fill="#1976D2" fill-opacity=".254" fill-rule="evenodd" d="M122.822 5.305c-2.958 3.005-6.606 7.72-8.107 10.477-2.689 4.94-5.028 13.608-4.84 17.931.071 1.619-.325 2.052-1.473 1.611-1.266-.486-1.312-.766-.236-1.448 1.08-.684 1.085-.848.025-.861-.72-.008-1.047-.439-.727-.957.723-1.17-9.711-4.561-11.695-3.8-1.735.666-2.264 11.154-.86 17.051l.907 3.81-3.158-.81c-4.01-1.027-21.277-1.055-24.908-.04-2.592.725-2.75 1.099-2.743 6.5.013 10.532 4.417 25.344 12.996 43.715l4.196 8.983 1.425-2.719c1.305-2.49 1.202-3.158-1.225-7.948-1.458-2.876-3.72-8.071-5.027-11.545-1.968-5.227-2.132-6.41-.952-6.863 2.301-.883 2.758-3.538.952-5.533-1.233-1.363-2.016-1.569-2.965-.782-1.001.831-1.555.1-2.471-3.253-2.097-7.675-2.718-15.693-1.261-16.253 4.228-1.622 11.788-1.669 18.767-.116l7.603 1.691 3.059 6.06c2.832 5.611 3.18 5.938 4.695 4.423 1.433-1.433 1.469-2.04.285-4.883-3.915-9.398-6.035-16.745-6.058-20.996-.023-4.117.245-4.75 2.006-4.75 3.914 0 8.943 2.843 10.077 5.698 3.048 7.671 5.489 12.9 6.444 13.802.582.55 2.702 3.737 4.711 7.083 4.217 7.024 4.404 10.936.887 18.612-1.183 2.582-2.151 4.915-2.151 5.183s-2.26 4.209-5.022 8.756c-6.744 11.104-8.978 18.658-8.978 30.361 0 15.236 2.212 24.256 9.198 37.505 3.334 6.325 7.427 13.487 9.094 15.916l3.032 4.415 2.088-2.648c4.665-5.918 19.474-33.679 21.702-40.683 1.954-6.141 2.386-9.629 2.386-19.25 0-7.146.392-11.763 1-11.782.55-.017.209-.632-.758-1.366-.966-.733-2.622-3.847-3.679-6.92s-3.154-7.687-4.66-10.257c-1.795-3.064-2.422-5.084-1.82-5.871.504-.66 2.313-3.288 4.018-5.839l3.102-4.638 6.084 10.711c6.784 11.945 12.959 26.285 15.684 36.421 3.339 12.419.82 24.96-6.801 33.863-1.885 2.203-3.335 4.959-3.261 6.197.074 1.227-.551 2.818-1.387 3.536-1.289 1.105-1.193 1.147.626.27 3.366-1.624 10.062-9.783 13.065-15.921 2.262-4.623 2.8-7.249 3.12-15.217.647-16.106-3.8-28.793-20.009-57.085l-4.955-8.649 3.071-6.084c2.198-4.355 3.78-6.262 5.565-6.71 1.372-.344 2.495-1.054 2.495-1.576 0-.523.45-.673 1-.333s1 .141 1-.441-.562-1.091-1.25-1.129-.35-.478.75-.977c1.405-.636.853-.725-1.859-.298-3.729.588-3.83.528-3-1.773.472-1.31.859-5.982.859-10.382v-8l-3.474.172c-1.911.094-3.627.632-3.815 1.194-.187.562-.951.787-1.698.5-.889-.341-1.258.111-1.067 1.307.221 1.386 1.047 1.766 3.423 1.573 2.839-.23 3.131.014 3.131 2.614 0 5.179-1.947 13.271-4.633 19.257-2.366 5.271-4.367 7.529-4.367 4.927 0-.526-1.35-3.246-3-6.044s-3-5.524-3-6.056C144 47.1 135.04 33 134.504 33c-.653 0 .921 10.002 1.977 12.566 1.082 2.626 1.251 4.913.647 8.743-.071.445-.555.545-1.078.222-1.178-.728-2.945 2.507-2.321 4.25.252.705-.146 1.155-.885 1-.777-.162-1.227.425-1.067 1.394.152.921-.255 2.003-.905 2.404-.741.458-.915.3-.467-.424.4-.649.138-1.155-.598-1.155-1.405 0-9.557-12.889-12.334-19.5-.945-2.249-1.726-6.906-1.784-10.638-.09-5.768.387-7.631 3.634-14.202 4.078-8.25 8.086-12.396 10.249-10.601.957.795 1.554.575 2.32-.856.824-1.541.557-2.372-1.331-4.145L128.2-.161zm6.525-2.474c.912 1.007 1.319 2.204.905 2.66-.414.457-.16.488.563.07 1.048-.605.965-1.146-.405-2.66C129.464 1.855 128.465 1 128.19 1s.246.824 1.157 1.831m8.575 54.919c-1.232 2.063-3.181 4.577-4.331 5.587s-1.416 1.486-.591 1.058c1.274-.662 1.301-.533.174.857-1.14 1.407-.734 2.506 2.906 7.866l4.231 6.23 2.301-2.886c1.266-1.588 3.104-4.377 4.086-6.199l1.783-3.312-3.49-6.474c-1.92-3.561-3.792-6.475-4.159-6.476-.368 0-1.677 1.687-2.91 3.749m-3.169-1.548c-.648 1.688 1.514 1.931 2.968.333.428-.47.255-.556-.386-.189-.64.367-1.345.124-1.566-.539-.263-.788-.615-.651-1.016.395M170 60.059c0 .582.45.781 1 .441s1-.816 1-1.059-.45-.441-1-.441-1 .477-1 1.059m-79.886 4.524c-2.556 3.249-2.557 3.287-.134 6.417 1.58 2.041 2.265 2.298 3.728 1.399 2.574-1.581 2.834-6.599.454-8.752-1.857-1.681-2.019-1.644-4.048.936m17.015 5.034c-1.084 2.379-.818 3.113 2.928 8.075 3.918 5.189 4.211 5.375 5.972 3.782 1.786-1.617 1.705-1.896-2.339-8.054-2.305-3.508-4.455-6.388-4.779-6.399-.325-.012-1.127 1.157-1.782 2.596m74.138 6.64-.233 5.243 1.961-2.5c2.256-2.877 2.518-5.087.805-6.8-1.963-1.963-2.289-1.442-2.533 4.057m-54.579 2.957c-4.517 6.012-10.283 16.208-12.887 22.786-7.58 19.151-6.214 31.331 6.282 56 8.448 16.678 7.978 16.256 11.561 10.382 3.844-6.3 8.751-16.798 12.566-26.882 4.261-11.261 4.972-24.378 1.846-34.053-2.912-9.016-9.656-22.022-15.156-29.233l-1.744-2.285zm-57.874 9.257c-.227 1.941-.33 3.529-.228 3.529.101 0 .894-1.084 1.762-2.408 1.317-2.01 1.354-2.594.228-3.529-1.082-.898-1.432-.42-1.762 2.408m37.355 2.76c-.767.767-.764 1.657.009 3.102 1.054 1.969 1.125 1.974 2.454.156.752-1.029 1.368-2.187 1.368-2.573 0-1.286-2.741-1.775-3.831-.685M151.71 93c-.287 1.1-.17 2 .261 2 1.24 0 3.081-2.614 2.354-3.342-1.17-1.17-2.08-.703-2.615 1.342m-22.663 30.398c-.061 12.594-.293 23.19-.513 23.548s-.077 1.175.319 1.817c1.283 2.074 7.16-9.309 8.754-16.955 2.107-10.102-.248-21.176-6.02-28.308l-2.427-3zM66.5 104.5c0 1.27.338 2.1.75 1.845.412-.254.75-1.085.75-1.845s-.338-1.591-.75-1.845c-.412-.255-.75.575-.75 1.845m17.96 10.739c-1.025 3.443-2.272 6.543-2.771 6.887-.499.345-1.141 2.707-1.428 5.25S79.423 132 79.035 132c-1.296 0 .904 11.892 3.042 16.44 2.322 4.94 8.977 12.984 12.146 14.679 1.452.777 1.83.775 1.346-.008-.419-.677-.089-.864.873-.495.851.327 1.327.949 1.058 1.384s.283 1.086 1.225 1.448 1.394.338 1.003-.053-.167-1.427.498-2.303c.664-.876.826-1.27.358-.876s-1.722-.394-2.789-1.75S95.213 158 94.427 158c-.785 0-1.427-.446-1.427-.991 0-.546-1.54-3.009-3.421-5.474-4.857-6.362-6.892-14.121-6.366-24.272.235-4.53.764-8.573 1.175-8.985 1.246-1.245 4.294 3.53 11.626 18.214 3.842 7.695 7.021 13.545 7.063 13 .414-5.338.287-7.217-.457-6.758-.484.3-.658-.081-.388-.845.729-2.059-1.771-7.755-9.229-21.027l-6.679-11.885zM192 134c0 1.867.267 2.133 1.2 1.2s.933-1.467 0-2.4-1.2-.667-1.2 1.2M68.052 148.437C66.5 150.307 67.355 153 69.5 153c2.229 0 3.041-2.888 1.301-4.628-1.297-1.297-1.625-1.289-2.749.065m120.702 1.072c-.378 1.977-.204 2.279.824 1.427.717-.595 1.057-1.724.756-2.509-.762-1.985-1.029-1.802-1.58 1.082m-16.675 11.074c.048 1.165.285 1.402.604.605.289-.722.253-1.585-.079-1.917s-.568.258-.525 1.312m-43.25 42.32c-.778 1.245-2.353 2.097-3.878 2.097-1.413 0-3.442.661-4.51 1.468-2.3 1.74-1.971 1.831 2.24.623 3.806-1.091 4.592-.532 3.217 2.29-.936 1.921-.859 1.905.823-.176 1.021-1.262 2.179-1.972 2.575-1.576.395.395 1.816.767 3.157.826l2.439.106-2.12-3.53c-1.165-1.942-2.235-3.687-2.376-3.878s-.847.596-1.567 1.75m-92.851 1.796c2.137 2.717 5.022 3.954 5.022 2.153 0-.533.337-.761.75-.507.413.255.75-.618.75-1.94 0-2.169-.424-2.405-4.323-2.405h-4.322zm22.846 1.311c-2.074 4.94-1.676 5.1 1.077.433 2.3-3.897 2.467-4.448 1.349-4.433-.413.006-1.504 1.806-2.426 4m11.487-1.63c.618 1.308 1.813 2.243 2.656 2.076a41 41 0 0 1 2.166-.379c.349-.043.869-.977 1.157-2.077.455-1.742.03-2-3.29-2-3.663 0-3.768.093-2.689 2.38m16.601-.545c.598 1.118 1.133 3.526 1.188 5.349.074 2.483.263 2.813.75 1.316.357-1.1 1.489-3.238 2.515-4.75 2.398-3.536 7.275-3.731 11.308-.453 1.555 1.264 3.502 2.249 4.327 2.189s2.175.341 3 .89c.825.55.03-.548-1.768-2.438-3.216-3.384-3.417-3.443-12.838-3.788-9.362-.341-9.547-.305-8.482 1.685m76.464 1.607c.592 1.894 1.375 2.961 1.739 2.372s1.162-.761 1.773-.383c.671.414 1.112-.087 1.112-1.265 0-2.578 2.369-3.383 5.759-1.956 1.507.634 3.62 1.24 4.693 1.345 1.777.174 1.744.022-.36-1.682-1.75-1.417-3.956-1.873-9.054-1.873h-6.74zM217 210.5c0 1.491.431 2.352 1 2 .55-.34 1-1.24 1-2s-.45-1.66-1-2c-.569-.352-1 .509-1 2m-61 0c0 .825.661 1.5 1.469 1.5.894 0 1.243-.586.893-1.5-.317-.825-.978-1.5-1.469-1.5s-.893.675-.893 1.5m-37.782 12.222c-1.806 3.051-3.091 5.738-2.858 5.972s1.872-2.104 3.64-5.194 3.054-5.778 2.857-5.972-1.834 2.143-3.639 5.194m84.247-4.665c-.749 1.212 4.09 8.635 6.455 9.9 2.775 1.485 7.369 1.289 9.639-.411 1.79-1.342 1.659-1.411-1.693-.888-3.4.53-3.851.274-7-3.968-3.305-4.452-6.339-6.351-7.401-4.633m-114.349 3.259c-.064 2.098-.582 4.686-1.151 5.75-.983 1.835-.638 1.934 6.75 1.93 8.246-.004 13.058-1.835 15.165-5.771 1.559-2.914-1.81-2.204-5.085 1.071-3.308 3.308-10.41 3.896-11.514.954-.362-.963-1.209-2.2-1.885-2.75s-1.438-1.9-1.696-3c-.257-1.1-.52-.283-.584 1.816m79.044-.959c-.104 1.211-.682 1.657-1.66 1.281-1.078-.413-1.5.103-1.5 1.834 0 1.326-.45 2.688-1 3.028-2.29 1.415-.704 2.5 3.655 2.5 4.367 0 4.558-.108 3.078-1.75-.867-.963-1.765-3.325-1.995-5.25s-.49-2.664-.578-1.643m-31.145.493c-.027 2.366 6.6 8.15 9.338 8.15 3.001 0 7.647-1.942 7.647-3.196 0-.481-.917-.384-2.038.216-2.703 1.447-5.351.495-8.27-2.974-1.643-1.953-2.827-2.581-3.767-1.999-.837.517-1.669.38-2.133-.35-.564-.887-.765-.847-.777.153m41.735-.091c-2.429.538-2.203 1.545 1.151 5.135 4.572 4.895 10.751 3.928 12.625-1.975 1.01-3.184-.179-3.409-1.685-.319-1.94 3.982-3.49 4.02-7.121.179-1.915-2.028-3.929-3.251-4.97-3.02m-102.6.991c-.083.688-.488 1.197-.9 1.132-2.158-.341-3.25.303-3.25 1.918 0 .99-.54 2.34-1.2 3-.933.933-.128 1.2 3.622 1.2 3.743 0 4.591-.28 3.789-1.25-.569-.687-1.231-2.6-1.473-4.25-.241-1.65-.506-2.437-.588-1.75m-28.635 1.226c-.332.537.055 2.225.861 3.75l1.464 2.774 1.11-2.894c.61-1.592 1.348-3.279 1.639-3.75s-.596-.856-1.971-.856-2.771.439-3.103.976m41.548 21.692c-.034 2.843-.364 5.954-.733 6.914-.418 1.089-.279 1.504.369 1.104 1.535-.949 2.441-8.163 1.363-10.853-.767-1.914-.947-1.404-.999 2.835m21.489.994-2.764 5.644-2.644-4.89c-3.666-6.78-5.746-6.942-6.63-.516-.379 2.754-.312 5.591.149 6.304.542.84 1.013-.289 1.337-3.204l.5-4.5 2.216 3.75c2.891 4.89 5.73 4.979 7.985.25 1.676-3.513 3.117-4.583 3.03-2.25-.129 3.481.372 5.75 1.269 5.75 1.521 0 1.22-9.573-.342-10.869-1.064-.883-1.914.056-4.106 4.531m15.425-3.62c-1.392 2.602-.87 9.174.773 9.714.908.298 1.25-1.254 1.25-5.673 0-3.345-.209-6.083-.465-6.083-.255 0-.956.919-1.558 2.042m47.773-1.465c-1.13 1.139-.903 12.423.25 12.423.55 0 1-1.35 1-3 0-3.923 1.162-3.788 4.446.519 1.477 1.935 3.074 3.278 3.55 2.983s1.148-.077 1.494.482c.345.559 1.007 1.016 1.47 1.016s-.463-1.398-2.059-3.106c-3.091-3.309-3.638-5.757-1.718-7.677 1.843-1.843.047-2.734-1.927-.956-2.961 2.667-4.598 2.478-5.2-.6-.306-1.562-.894-2.5-1.306-2.084m-112.916.923c-.345.55-.787 3.7-.981 7l-.353 6 3 .093c2.794.087 2.812.066.268-.312-2.662-.395-2.691-.469-1.115-2.874 1.276-1.947 1.427-3.362.714-6.688-.497-2.321-1.187-3.769-1.533-3.219M76 245.566c0 4.873 1.512 8.853 3.012 7.927.545-.337.525-1.582-.05-3.094-.529-1.391-.962-4.075-.962-5.964S77.55 241 77 241s-1 2.055-1 4.566m78 1.549c0 4.394.342 5.939 1.25 5.641.688-.226 1.39-1.586 1.561-3.023.236-1.991.947-2.686 2.991-2.922 1.672-.194 2.814-1.014 3.036-2.179.223-1.175-.059-1.614-.758-1.181-.612.378-.894 1.041-.627 1.474.268.432-.625.574-1.983.314s-2.47-1.047-2.47-1.749-.675-1.535-1.5-1.852c-1.232-.472-1.5.508-1.5 5.477m38.068-1.93c-.038 2.577-.507 5.839-1.043 7.25-.537 1.411-.699 2.565-.36 2.565 1.257 0 3.272-3.579 3.303-5.867.026-1.955.45-2.286 2.441-1.906 1.838.352 2.271.104 1.83-1.047-.377-.983-.171-1.256.591-.785.724.447 1.17.052 1.17-1.036 0-1.368-.267-1.492-1.2-.559-1.883 1.883-4.393 1.411-5.58-1.05-.951-1.972-1.093-1.672-1.152 2.435m-55.401-2.518c-.367.366-.667 2.616-.667 5 0 3.185.397 4.333 1.5 4.333.933 0 1.5-.944 1.5-2.5 0-2.111.467-2.5 3-2.5 1.977 0 3-.503 3-1.475 0-1.106-.751-1.325-3-.875-2.349.47-3 .247-3-1.025 0-1.669-1.15-2.141-2.333-.958M124 254.031c0 .533.675.969 1.5.969s1.5-.177 1.5-.393-.675-.652-1.5-.969-1.5-.139-1.5.393m-26.187.652c.721.289 1.584.253 1.916-.079s-.258-.568-1.312-.525c-1.165.048-1.402.285-.604.604m16 0c.721.289 1.584.253 1.916-.079s-.258-.568-1.312-.525c-1.165.048-1.402.285-.604.604m27.937-.021c.688.278 1.813.278 2.5 0 .688-.277.125-.504-1.25-.504s-1.937.227-1.25.504m14.012.045c1.244.239 3.044.23 4-.02s-.062-.446-2.262-.435-2.982.216-1.738.455m38.507-.014c.973.254 2.323.237 3-.037s-.119-.481-1.769-.461-2.204.244-1.231.498"/><path fill="#1976D2" fill-opacity=".208" fill-rule="evenodd" d="M117 15.059c0 .582-.45.781-1 .441-.972-.601-1.405.707-1.075 3.25.09.688-.263 1.25-.783 1.25-3.16 0-4.138 14.72-1.494 22.48 1.523 4.47 1.752 4.694 3.022 2.957.756-1.034 1.089-2.568.741-3.408-1.351-3.265-1.627-14.844-.439-18.444C117.479 19.019 118.31 14 117.56 14c-.308 0-.56.477-.56 1.059M95.669 32.095c.38 1.898.171 2.905-.603 2.905-.651 0-.886.482-.522 1.072.365.59.822 3.989 1.016 7.554.343 6.296.29 6.461-1.853 5.777-2.748-.877-8.113-.634-12.707.574-2.835.746-2.407.814 2.25.357 4.194-.412 5.75-.231 5.75.667 0 .74.799 1.023 2 .709 1.1-.287 2-.067 2 .491 0 .557.605.781 1.345.497.739-.284 1.977.398 2.75 1.515.773 1.118 1.946 2.598 2.607 3.29s1.02 1.442.796 1.666.44.936 1.475 1.582c1.69 1.056 1.846.899 1.524-1.538-.198-1.492-.39-3.077-.428-3.522s-.589-.488-1.224-.096c-.634.393-.895.296-.579-.216.605-.979-2.325-12.771-3.454-13.9-.841-.841.178-7.612 1.375-9.14.576-.734.433-1.459-.388-1.972-2.787-1.74-3.72-1.224-3.13 1.728M137 42.48c0 4.275 2.65 11.172 4.578 11.911 2.591.995 1.79-7.385-1.114-11.659-1.395-2.053-2.745-3.732-3-3.732S137 40.566 137 42.48m-57.187 5.203c.721.289 1.584.253 1.916-.079s-.258-.568-1.312-.525c-1.165.048-1.402.285-.604.604M150 63.351c0 .743-1.125 3.467-2.5 6.053s-2.485 6.141-2.467 7.899l.034 3.197 1.987-2.5a246 246 0 0 1 3.827-4.679c2.476-2.931 3.264-7.413 1.681-9.571-1.533-2.092-2.562-2.252-2.562-.399m-58 4.618c0 4.018.289 4.858 1.509 4.389 2.066-.793 2.9-4.725 1.541-7.265-1.865-3.485-3.05-2.368-3.05 2.876m38.428 3.299c-.819 3.653-.654 4.642 1.206 7.232 5.595 7.789 13.512 23.739 15.429 31.083 2.676 10.252 2.007 18.41-2.632 32.103-3.597 10.616-5.595 21.149-3.473 18.314 6.411-8.566 10.422-24.242 10.491-41 .028-6.875-.274-14.75-.671-17.5-.79-5.469-6.889-18.304-10.649-22.411-1.303-1.424-3.806-4.718-5.561-7.321l-3.191-4.732zm-23.003-.825c-.442 1.76.145 3.438 2.1 6 1.492 1.956 2.788 3.557 2.881 3.557.956 0 .274-6.718-.915-9.017-1.872-3.621-3.247-3.803-4.066-.54m-36.758.224c-.367.366-.667 1.131-.667 1.7 0 .626.466.567 1.183-.15.651-.651.951-1.416.667-1.7s-.817-.217-1.183.15m4.215 2a6.4 6.4 0 0 0 0 1.583c.198 1.256-1.687.836-2.123-.473-.224-.673-.913.227-1.531 2-.629 1.803-.72 3.223-.207 3.223.504 0 .657.675.341 1.5-.317.825-.092 1.5.5 1.5.591 0 .816.675.5 1.5-.317.825-.051 1.5.59 1.5s.888.45.548 1-.237 1 .228 1c.466 0 .92.972 1.009 2.16.09 1.188.674 2.476 1.298 2.862.625.386 1.103 1.101 1.062 1.59C76.956 95.317 78.142 98 79.036 98c.496 0 .614.749.263 1.664-.464 1.208-.276 1.44.686.846q1.32-.817.612.334c-.392.634-.037 2.118.79 3.298l1.503 2.146.656-2.613c.461-1.837-.03-3.736-1.653-6.394-1.269-2.08-2.639-3.923-3.044-4.096s-.46-1.034-.123-1.914c.423-1.102.229-1.361-.623-.835-.773.478-1.141.258-.981-.586.385-2.035-1.166-7.85-2.094-7.85-.448 0-1.111-.774-1.474-1.72-.363-.945-.363-1.422 0-1.06 1.088 1.089 4.654-2.901 4.287-4.796-.352-1.814-2.749-3.238-2.959-1.757m107.577 4.4c-.363.586-.445 1.281-.183 1.543s.743-.218 1.069-1.067c.676-1.762.1-2.072-.886-.476M106 91.918c0 .505.278 1.643.618 2.53.556 1.447.756 1.43 1.968-.169C110.466 91.802 110.322 91 108 91c-1.1 0-2 .413-2 .918m4.921 12.693c-2.541 6.468-2.979 9.358-2.975 19.626.004 10.965 1.835 21.68 4.54 26.573l1.488 2.69-.192-3.75c-.105-2.062-.575-3.75-1.045-3.75s-.626-.371-.346-.824-.404-3.715-1.519-7.25c-1.642-5.202-1.949-8.33-1.612-16.426.235-5.653 1.12-11.939 2.034-14.461 1.779-4.906 1.448-7.062-.373-2.428m24.293 17.671c.08 11.668.964 15.58 2.164 9.577 1.023-5.113.681-12.074-.826-16.859-1.392-4.418-1.417-4.285-1.338 7.282m-49.557-7.83c-.478 1.245-.04 2.474 1.339 3.759 1.126 1.049 1.806 2.3 1.51 2.78-.296.479-.104 1.14.428 1.468.531.328 1.483-.37 2.116-1.552.684-1.279.734-1.891.122-1.513-.991.612-2.802-3.031-2.345-4.718.122-.454-.2-.563-.717-.244s-1.12.038-1.341-.625c-.242-.725-.685-.468-1.112.645m92.422 19.131c.048 1.165.285 1.402.604.605.289-.722.253-1.585-.079-1.917s-.568.258-.525 1.312M67.556 148.91c-.863 1.396.488 4.09 2.051 4.09.819 0 1.393-1.03 1.393-2.5 0-2.456-2.263-3.501-3.444-1.59m140.012 76.773c-.324.844.46 1.757 2.016 2.349 5.787 2.2 7.396.425 1.933-2.131-2.853-1.335-3.506-1.371-3.949-.218M142 227.156c0 1.298 3.678 1.899 6.105.997 2.135-.793 1.934-.933-1.855-1.297-2.338-.225-4.25-.09-4.25.3m21.5-.156c-.362.585.676 1 2.5 1s2.862-.415 2.5-1c-.34-.55-1.465-1-2.5-1s-2.16.45-2.5 1m-65.332 20.344c.136 4.18.241 4.463.555 1.492.216-2.044 1.05-3.918 1.884-4.239.881-.338 1.234-.149.859.458-.734 1.187 2.101 5.945 3.541 5.945 1.701 0-3.03-7.773-5.054-8.302-1.766-.462-1.937-.016-1.785 4.646m12.822-3.832c-.701.845-.986 1.825-.633 2.179.354.353.643.117.643-.524 0-.642.45-1.167 1-1.167s1 1.827 1 4.059c0 2.451.396 3.814 1 3.441 1.482-.916 1.212-7.079-.367-8.39-1.041-.864-1.672-.768-2.643.402M88.252 246.5c.011 2.2.216 2.982.455 1.738s.23-3.044-.02-4-.446.062-.435 2.262M125 247.559c0 2.785.389 4.319 1 3.941.55-.34 1-2.391 1-4.559s-.45-3.941-1-3.941-1 2.052-1 4.559m47.667-3.892c-1.062 1.062-.771 8.333.333 8.333.55 0 1-2.025 1-4.5 0-4.578-.152-5.015-1.333-3.833m5.974 1.231-2.858 1.885 2.192 2.192c2.402 2.402 4.089 2.012 2.029-.47-1.057-1.274-.968-1.887.513-3.524 2.236-2.471 1.777-2.491-1.876-.083M59 248.059c0 2.451.396 3.814 1 3.441.55-.34 1-2.166 1-4.059S60.55 244 60 244s-1 1.827-1 4.059m17-1.118c0 1.618.45 3.219 1 3.559.595.368 1-.823 1-2.941 0-1.957-.45-3.559-1-3.559s-1 1.323-1 2.941M137 248c0 2.265.352 3.901.781 3.635 1.193-.737 1.376-6.42.23-7.128-.619-.383-1.011.973-1.011 3.493m17.683-3.35c-.993.993-.838 6.136.205 6.781.488.302 1.115-.909 1.393-2.691.506-3.251-.32-5.367-1.598-4.09m37.419 3.4.103 4.45.831-3.5c.486-2.048.444-3.894-.103-4.45-.58-.59-.894.734-.831 3.5m-83.643.017c-.363.586-.445 1.281-.183 1.543s.743-.218 1.069-1.067c.676-1.762.1-2.072-.886-.476"/></svg>